<?xml version="1.0" encoding="UTF-8"?>
<svg id="Layer_2" data-name="Layer 2" xmlns="http://www.w3.org/2000/svg" viewBox="0 0 256 256">
  <defs>
    <style>
      .cls-1 {
        fill: #de0500;
        stroke-width: 0px;
      }
    </style>
  </defs>
  <g id="Layer_1-2" data-name="Layer 1">
    <path class="cls-1" d="M128,6c32.59,0,63.22,12.69,86.27,35.73,23.04,23.04,35.73,53.68,35.73,86.27s-12.69,63.22-35.73,86.27c-23.04,23.04-53.68,35.73-86.27,35.73s-63.22-12.69-86.27-35.73c-23.04-23.04-35.73-53.68-35.73-86.27s12.69-63.22,35.73-86.27C64.78,18.69,95.41,6,128,6M128,0C57.31,0,0,57.31,0,128s57.31,128,128,128,128-57.31,128-128S198.69,0,128,0h0Z"/>
    <path class="cls-1" d="M128,26.73c-55.93,0-101.27,45.34-101.27,101.27s45.34,101.27,101.27,101.27,101.27-45.34,101.27-101.27S183.93,26.73,128,26.73ZM86.45,119.26l-28.58,9.7-3.55,1.31,3.55,1.25,28.58,9.55v14.13l-46.16-19.14v-11.74l46.16-19.14v14.08ZM121.25,169.23h-13.51l28.42-82.46h13.51l-28.42,82.46ZM168.76,155.25v-14.08l29.89-10.01,3.18-1.05-3.13-1.04-29.94-9.86v-14.03l46.95,19.09v11.84l-46.95,19.14Z"/>
  </g>
</svg>