<?xml version="1.0" encoding="UTF-8"?>
<svg id="Layer_2" data-name="Layer 2" xmlns="http://www.w3.org/2000/svg" viewBox="0 0 256 256">
  <defs>
    <style>
      .cls-1 {
        fill: #de0500;
      }

      .cls-1, .cls-2 {
        stroke-width: 0px;
      }

      .cls-2 {
        fill: #fff;
      }
    </style>
  </defs>
  <g id="Layer_1-2" data-name="Layer 1">
    <g>
      <path class="cls-1" d="M128,6c32.59,0,63.22,12.69,86.27,35.73,23.04,23.04,35.73,53.68,35.73,86.27s-12.69,63.22-35.73,86.27c-23.04,23.04-53.68,35.73-86.27,35.73s-63.22-12.69-86.27-35.73c-23.04-23.04-35.73-53.68-35.73-86.27s12.69-63.22,35.73-86.27C64.78,18.69,95.41,6,128,6M128,0C57.31,0,0,57.31,0,128s57.31,128,128,128,128-57.31,128-128S198.69,0,128,0h0Z"/>
      <circle class="cls-1" cx="128" cy="128" r="101.27"/>
      <g>
        <path class="cls-2" d="M40.29,136.06v-11.74l46.16-19.14v14.08l-28.58,9.7-3.55,1.3,3.55,1.25,28.58,9.55v14.14l-46.16-19.14Z"/>
        <path class="cls-2" d="M107.74,169.23l28.43-82.46h13.51l-28.43,82.46h-13.51Z"/>
        <path class="cls-2" d="M168.76,141.17l29.89-10.01,3.18-1.04-3.13-1.04-29.94-9.86v-14.03l46.94,19.09v11.84l-46.94,19.14v-14.08Z"/>
      </g>
    </g>
  </g>
</svg>